<?xml version="1.0" encoding="UTF-8"?>
<svg id="Layer_1" data-name="Layer 1" xmlns="http://www.w3.org/2000/svg" viewBox="0 0 1274.24 643.41">
  <defs>
    <style>
      .cls-1 {
        fill: #fcf6f1;
      }
    </style>
  </defs>
  <path class="cls-1" d="M333.62,103.47c0-22.15-17.96-40.11-40.11-40.11h-59.07c-.89,0-1.59-.71-1.6-1.6v-24.59c0-20.53-16.64-37.17-37.17-37.17h-57.18c-20.53,0-37.17,16.64-37.17,37.17v24.59c0,.89-.72,1.61-1.61,1.61h-59.48C18.09,63.37.14,81.31.13,103.46l-.13,271.23c0,53.26,27.85,66.9,55.32,86.17,28.37,19.9,51.78,33.96,79.68,54.51,6.85,5.04,23.71,16.69,25.35,25.69,5.09,27.96-32.47,49.87-21.85,82.79,8.74,27.09,51.44,25.62,57.92-1.76,7.68-32.41-30.4-55.21-23.36-81.2,2.15-7.96,12.4-16.33,18.85-21.05,25.68-18.78,59.55-39.94,86.86-59.14,26.99-18.98,54.86-33.41,54.86-86.33V103.47ZM138.25,21.7h57.75c7.71,0,13.96,6.25,13.96,13.96v26.18c0,.84-.68,1.52-1.52,1.52h-82.62c-.84,0-1.52-.68-1.52-1.52v-26.17c0-7.71,6.24-13.96,13.96-13.96ZM243.95,346.49c0,3.06-2.48,5.55-5.55,5.55h-47.53v47.53c0,3.06-2.48,5.55-5.55,5.55h-38.6c-3.06,0-5.55-2.48-5.55-5.55v-47.53h-47.53c-3.06,0-5.55-2.48-5.55-5.55v-38.6c0-3.06,2.48-5.55,5.55-5.55h47.53v-47.53c0-3.06,2.48-5.55,5.55-5.55h38.6c3.06,0,5.55,2.48,5.55,5.55v47.53h47.53c3.06,0,5.55,2.48,5.55,5.55v38.6ZM310.12,180.67c0,4.06-4.2,6.76-7.89,5.07-20.3-9.32-76.85-30.23-135.1-6.59-90.75,36.84-131.53,18.17-141.62,11.83-1.62-1.01-2.58-2.8-2.58-4.7v-80.29c0-10.89,8.83-19.72,19.72-19.72h247.75c10.89,0,19.72,8.83,19.72,19.72v74.68Z"/>
  <g>
    <g>
      <path class="cls-1" d="M477.35,91.77v95.42c0,3.47.28,6.04.83,7.71.55,1.67,1.7,2.78,3.44,3.33,1.74.56,4.27.83,7.6.83h7.08c10.83,0,20.21-2.92,28.13-8.75,7.92-5.83,13.19-13.61,15.83-23.33.14-.42.55-.55,1.25-.42.69.14,1.04.42,1.04.83-.42,4.58-.83,10.1-1.25,16.56-.42,6.46-.62,12.4-.62,17.81,0,2.08-1.04,3.12-3.13,3.12h-98.34c-.28,0-.42-.42-.42-1.25s.14-1.25.42-1.25c4.3,0,7.5-.35,9.58-1.04,2.08-.69,3.51-2.08,4.27-4.17.76-2.08,1.15-5.14,1.15-9.17v-96.46c0-4.03-.38-7.05-1.15-9.06-.76-2.01-2.19-3.4-4.27-4.17-2.08-.76-5.28-1.15-9.58-1.15-.28,0-.42-.42-.42-1.25s.14-1.25.42-1.25c3.33,0,7.32.1,11.98.31,4.65.21,9.48.31,14.48.31,5.28,0,10.14-.1,14.58-.31,4.44-.21,8.4-.31,11.88-.31.42,0,.62.42.62,1.25s-.21,1.25-.62,1.25c-4.17,0-7.33.38-9.48,1.15-2.16.76-3.58,2.19-4.27,4.27-.7,2.08-1.04,5.14-1.04,9.17Z"/>
      <path class="cls-1" d="M595.89,188.03c0,4.03.35,7.08,1.04,9.17.69,2.08,2.08,3.47,4.17,4.17,2.08.7,5.28,1.04,9.58,1.04.42,0,.62.42.62,1.25s-.21,1.25-.62,1.25c-3.61,0-7.64-.07-12.08-.21-4.45-.14-9.31-.21-14.58-.21-5,0-9.79.07-14.38.21-4.58.14-8.68.21-12.29.21-.28,0-.42-.42-.42-1.25s.14-1.25.42-1.25c4.3,0,7.53-.35,9.69-1.04,2.15-.69,3.61-2.08,4.38-4.17.76-2.08,1.15-5.14,1.15-9.17v-96.46c0-4.03-.38-7.05-1.15-9.06-.77-2.01-2.22-3.4-4.38-4.17-2.15-.76-5.38-1.15-9.69-1.15-.28,0-.42-.42-.42-1.25s.14-1.25.42-1.25c3.61,0,7.71.1,12.29.31,4.58.21,9.38.31,14.38.31,5.28,0,10.17-.1,14.69-.31,4.51-.21,8.51-.31,11.98-.31.42,0,.62.42.62,1.25s-.21,1.25-.62,1.25c-4.17,0-7.33.42-9.48,1.25-2.16.83-3.58,2.29-4.27,4.37-.7,2.08-1.04,5.14-1.04,9.17v96.05Z"/>
      <path class="cls-1" d="M698.19,207.4c-10,0-19.06-1.77-27.19-5.31-8.13-3.54-15.07-8.44-20.83-14.69-5.76-6.25-10.21-13.44-13.33-21.56-3.12-8.13-4.69-16.77-4.69-25.94,0-11.25,2.19-21.11,6.56-29.58,4.38-8.47,10.17-15.52,17.4-21.15,7.22-5.63,15.14-9.83,23.75-12.6,8.61-2.78,17.15-4.17,25.63-4.17,10.28,0,19.48,1.84,27.61,5.52,8.13,3.68,15.03,8.65,20.73,14.9,5.69,6.25,10.03,13.33,13.02,21.25,2.99,7.92,4.48,16.04,4.48,24.38,0,9.72-1.95,18.75-5.83,27.08-3.89,8.33-9.2,15.63-15.94,21.88-6.74,6.25-14.51,11.15-23.33,14.69-8.82,3.54-18.16,5.31-28.02,5.31ZM705.06,202.19c7.78,0,14.72-2.22,20.83-6.67,6.11-4.44,10.94-10.97,14.48-19.58,3.54-8.61,5.31-19.1,5.31-31.46s-1.95-24.17-5.83-34.17c-3.89-10-9.45-17.88-16.67-23.65-7.22-5.76-15.91-8.65-26.04-8.65-12.64,0-22.36,4.79-29.17,14.38-6.81,9.58-10.21,22.85-10.21,39.79,0,10.14,1.18,19.48,3.54,28.02,2.36,8.54,5.66,15.97,9.9,22.29,4.24,6.32,9.24,11.18,15,14.58,5.76,3.41,12.05,5.1,18.85,5.1ZM724.23,202.4c3.61,7.92,7.99,14.9,13.13,20.94,5.14,6.04,10.55,10.76,16.25,14.17,5.69,3.4,11.11,5.1,16.25,5.1,1.53,0,2.88-.04,4.06-.1,1.18-.07,2.26-.18,3.23-.31.42-.14.73.14.94.83.21.69.17,1.11-.1,1.25-2.5.69-5.14,1.28-7.92,1.77-2.78.48-5.76.73-8.96.73-7.08,0-14.52-1.63-22.29-4.9-7.78-3.26-15.31-8.02-22.61-14.27-7.29-6.25-13.79-13.96-19.48-23.13l27.5-2.08Z"/>
      <path class="cls-1" d="M902.57,101.36c0-7.36-1.7-13.23-5.1-17.6-3.41-4.37-8.16-6.56-14.27-6.56-.28,0-.42-.42-.42-1.25s.14-1.25.42-1.25c3.47,0,7.05.1,10.73.31,3.68.21,7.67.31,11.98.31,3.75,0,7.43-.1,11.04-.31,3.61-.21,6.94-.31,10-.31.28,0,.42.42.42,1.25s-.14,1.25-.42,1.25c-5.56,0-9.83,2.19-12.81,6.56-2.99,4.38-4.48,10.25-4.48,17.6v57.92c0,9.86-2.16,18.44-6.46,25.73-4.31,7.29-10.35,12.92-18.13,16.88-7.78,3.96-16.88,5.94-27.29,5.94s-19.2-1.95-27.19-5.83c-7.99-3.89-14.24-9.48-18.75-16.77-4.51-7.29-6.77-16.08-6.77-26.36v-67.3c0-4.03-.35-7.05-1.04-9.06-.7-2.01-2.12-3.4-4.27-4.17-2.15-.76-5.31-1.15-9.48-1.15-.42,0-.62-.42-.62-1.25s.21-1.25.62-1.25c3.61,0,7.64.1,12.08.31,4.45.21,9.17.31,14.17.31,5.28,0,10.14-.1,14.58-.31,4.45-.21,8.4-.31,11.88-.31.42,0,.62.42.62,1.25s-.21,1.25-.62,1.25c-4.17,0-7.29.42-9.38,1.25-2.08.83-3.51,2.29-4.27,4.37-.76,2.08-1.14,5.14-1.14,9.17v59.59c0,17.08,3.4,29.45,10.21,37.08,6.8,7.64,15.9,11.46,27.29,11.46s20.55-3.51,27.08-10.52c6.53-7.01,9.79-17.05,9.79-30.1v-58.13Z"/>
      <path class="cls-1" d="M979.44,188.03c0,4.03.34,7.08,1.04,9.17.69,2.08,2.08,3.47,4.17,4.17,2.08.7,5.28,1.04,9.58,1.04.42,0,.62.42.62,1.25s-.21,1.25-.62,1.25c-3.61,0-7.64-.07-12.08-.21-4.45-.14-9.31-.21-14.58-.21-5,0-9.79.07-14.38.21-4.58.14-8.68.21-12.29.21-.28,0-.42-.42-.42-1.25s.14-1.25.42-1.25c4.3,0,7.53-.35,9.69-1.04,2.15-.69,3.61-2.08,4.38-4.17.76-2.08,1.15-5.14,1.15-9.17v-96.46c0-4.03-.38-7.05-1.15-9.06-.76-2.01-2.22-3.4-4.38-4.17-2.15-.76-5.38-1.15-9.69-1.15-.28,0-.42-.42-.42-1.25s.14-1.25.42-1.25c3.61,0,7.71.1,12.29.31,4.58.21,9.38.31,14.38.31,5.28,0,10.17-.1,14.69-.31,4.51-.21,8.51-.31,11.98-.31.42,0,.62.42.62,1.25s-.21,1.25-.62,1.25c-4.17,0-7.33.42-9.48,1.25-2.15.83-3.58,2.29-4.27,4.37-.7,2.08-1.04,5.14-1.04,9.17v96.05Z"/>
      <path class="cls-1" d="M1073.4,205.73c-4.45,0-10-.21-16.67-.62-6.67-.42-12.78-.62-18.33-.62-5,0-9.79.07-14.38.21-4.58.14-8.68.21-12.29.21-.28,0-.42-.42-.42-1.25s.14-1.25.42-1.25c4.3,0,7.53-.35,9.69-1.04,2.15-.69,3.61-2.08,4.38-4.17.76-2.08,1.15-5.14,1.15-9.17v-96.46c0-4.03-.35-7.05-1.04-9.06-.7-2.01-2.12-3.4-4.27-4.17-2.15-.76-5.31-1.15-9.48-1.15-.42,0-.63-.42-.63-1.25s.21-1.25.63-1.25c3.61,0,7.64.1,12.08.31,4.44.21,9.24.31,14.38.31s10.49-.17,16.46-.52c5.97-.35,11.11-.52,15.42-.52,14.44,0,27.01,2.78,37.71,8.33,10.69,5.56,19.03,13.13,25,22.71,5.97,9.58,8.96,20.35,8.96,32.29,0,10.42-1.81,19.83-5.42,28.23-3.61,8.4-8.61,15.56-15,21.46-6.39,5.91-13.72,10.45-21.98,13.65-8.27,3.2-17.05,4.79-26.36,4.79ZM1071.32,200.94c8.75,0,16.53-2.26,23.33-6.77,6.8-4.51,12.15-11.15,16.04-19.9,3.89-8.75,5.83-19.44,5.83-32.08,0-11.8-1.81-22.5-5.42-32.09-3.61-9.58-8.68-17.19-15.21-22.81-6.53-5.63-14.31-8.44-23.33-8.44-8.06,0-13.82.77-17.29,2.29-3.47,1.53-5.21,5.14-5.21,10.83v93.75c0,5.14,1.35,8.96,4.06,11.46,2.71,2.5,8.44,3.75,17.19,3.75Z"/>
    </g>
    <g>
      <path class="cls-1" d="M477.35,279.38v95.42c0,3.47.28,6.04.83,7.71.55,1.67,1.7,2.78,3.44,3.33,1.74.56,4.27.83,7.6.83h7.08c10.83,0,20.21-2.92,28.13-8.75,7.92-5.83,13.19-13.61,15.83-23.33.14-.42.55-.55,1.25-.42.69.14,1.04.42,1.04.83-.42,4.58-.83,10.1-1.25,16.56-.42,6.46-.62,12.4-.62,17.81,0,2.08-1.04,3.12-3.13,3.12h-98.34c-.28,0-.42-.42-.42-1.25s.14-1.25.42-1.25c4.3,0,7.5-.35,9.58-1.04,2.08-.69,3.51-2.08,4.27-4.17.76-2.08,1.15-5.14,1.15-9.17v-96.46c0-4.03-.38-7.05-1.15-9.06-.76-2.01-2.19-3.4-4.27-4.17-2.08-.76-5.28-1.15-9.58-1.15-.28,0-.42-.42-.42-1.25s.14-1.25.42-1.25c3.33,0,7.32.1,11.98.31,4.65.21,9.48.31,14.48.31,5.28,0,10.14-.1,14.58-.31,4.44-.21,8.4-.31,11.88-.31.42,0,.62.42.62,1.25s-.21,1.25-.62,1.25c-4.17,0-7.33.38-9.48,1.15-2.16.76-3.58,2.19-4.27,4.27-.7,2.08-1.04,5.14-1.04,9.17Z"/>
      <path class="cls-1" d="M624.85,395.01c-10,0-19.06-1.77-27.19-5.31-8.13-3.54-15.07-8.44-20.83-14.69-5.76-6.25-10.21-13.44-13.33-21.56-3.12-8.13-4.69-16.77-4.69-25.94,0-11.25,2.19-21.11,6.56-29.58,4.38-8.47,10.17-15.52,17.4-21.15,7.22-5.63,15.14-9.83,23.75-12.6,8.61-2.78,17.15-4.17,25.63-4.17,10.28,0,19.48,1.84,27.61,5.52,8.13,3.68,15.03,8.65,20.73,14.9,5.69,6.25,10.03,13.33,13.02,21.25,2.99,7.92,4.48,16.04,4.48,24.38,0,9.72-1.95,18.75-5.83,27.08-3.89,8.33-9.2,15.63-15.94,21.88-6.74,6.25-14.51,11.15-23.33,14.69-8.82,3.54-18.16,5.31-28.02,5.31ZM631.73,389.8c7.78,0,14.72-2.22,20.83-6.67,6.11-4.44,10.94-10.97,14.48-19.58,3.54-8.61,5.31-19.1,5.31-31.46s-1.95-24.17-5.83-34.17c-3.89-10-9.45-17.88-16.67-23.65-7.22-5.76-15.91-8.65-26.04-8.65-12.64,0-22.36,4.79-29.17,14.38-6.81,9.58-10.21,22.85-10.21,39.79,0,10.14,1.18,19.48,3.54,28.02,2.36,8.54,5.66,15.97,9.9,22.29,4.24,6.32,9.24,11.18,15,14.58,5.76,3.41,12.05,5.1,18.85,5.1Z"/>
      <path class="cls-1" d="M829.23,288.97c0-7.36-1.7-13.23-5.1-17.6-3.4-4.37-8.16-6.56-14.27-6.56-.28,0-.42-.42-.42-1.25s.14-1.25.42-1.25c3.47,0,7.05.1,10.73.31,3.68.21,7.67.31,11.98.31,3.75,0,7.43-.1,11.04-.31,3.61-.21,6.94-.31,10-.31.28,0,.42.42.42,1.25s-.14,1.25-.42,1.25c-5.56,0-9.83,2.19-12.81,6.56-2.99,4.38-4.48,10.25-4.48,17.6v57.92c0,9.86-2.15,18.44-6.46,25.73-4.31,7.29-10.35,12.92-18.13,16.88-7.78,3.96-16.88,5.94-27.29,5.94s-19.2-1.95-27.19-5.83c-7.99-3.89-14.24-9.48-18.75-16.77-4.51-7.29-6.77-16.08-6.77-26.36v-67.3c0-4.03-.35-7.05-1.04-9.06-.7-2.01-2.12-3.4-4.27-4.17-2.15-.76-5.31-1.15-9.48-1.15-.42,0-.62-.42-.62-1.25s.21-1.25.62-1.25c3.61,0,7.64.1,12.08.31,4.44.21,9.17.31,14.17.31,5.28,0,10.14-.1,14.58-.31,4.44-.21,8.4-.31,11.88-.31.42,0,.62.42.62,1.25s-.21,1.25-.62,1.25c-4.17,0-7.29.42-9.38,1.25-2.08.83-3.51,2.29-4.27,4.37-.77,2.08-1.15,5.14-1.15,9.17v59.59c0,17.08,3.4,29.45,10.21,37.08,6.8,7.64,15.9,11.46,27.29,11.46s20.55-3.51,27.08-10.52c6.53-7.01,9.79-17.05,9.79-30.1v-58.13Z"/>
      <path class="cls-1" d="M991.53,395.64c0,.42-.31.66-.94.73-.62.07-1.08.03-1.35-.1l-102.71-116.88c-5-5.69-9.24-9.55-12.71-11.56-3.47-2.01-6.95-3.02-10.42-3.02-.28,0-.42-.42-.42-1.25s.14-1.25.42-1.25c2.78,0,5.63.07,8.54.21,2.92.14,5.62.21,8.13.21,5,0,9.51-.07,13.54-.21,4.03-.14,7.15-.21,9.38-.21,1.8,0,3.16.8,4.06,2.4.9,1.6,3.02,4.41,6.35,8.44l76.46,88.13,1.67,34.38ZM885.27,366.05v-98.96l6.25.42v98.55c0,7.36,1.53,13.2,4.58,17.5,3.05,4.31,7.29,6.46,12.71,6.46.28,0,.42.42.42,1.25s-.14,1.25-.42,1.25c-3.06,0-6.22-.07-9.48-.21-3.26-.14-6.84-.21-10.73-.21-4.17,0-8.23.07-12.19.21-3.96.14-7.6.21-10.94.21-.42,0-.63-.42-.63-1.25s.21-1.25.63-1.25c6.11,0,10.94-2.15,14.48-6.46,3.54-4.3,5.31-10.14,5.31-17.5ZM991.53,288.97v106.67l-6.04-6.25v-100.42c0-7.36-1.53-13.23-4.58-17.6-3.06-4.37-7.29-6.56-12.71-6.56-.28,0-.42-.42-.42-1.25s.14-1.25.42-1.25c3.05,0,6.21.1,9.48.31,3.26.21,6.84.31,10.73.31s7.43-.1,11.04-.31c3.61-.21,6.94-.31,10-.31.28,0,.42.42.42,1.25s-.14,1.25-.42,1.25c-5.56,0-9.93,2.19-13.13,6.56-3.2,4.38-4.79,10.25-4.79,17.6Z"/>
      <path class="cls-1" d="M1101.74,395.01c-12.22,0-23.13-1.74-32.71-5.21-9.58-3.47-17.71-8.26-24.38-14.37-6.67-6.11-11.74-13.19-15.21-21.25-3.47-8.05-5.21-16.67-5.21-25.83,0-10.14,2.01-19.38,6.04-27.71,4.03-8.33,9.72-15.52,17.08-21.56,7.36-6.04,15.97-10.73,25.83-14.06,9.86-3.33,20.63-5,32.29-5,6.53,0,13.12.49,19.79,1.46,6.67.97,12.08,2.36,16.25,4.17,1.53.56,2.4,1.01,2.6,1.35.21.35.38,1.49.52,3.44l2.71,28.96c0,.42-.35.7-1.04.83-.7.14-1.18-.07-1.46-.62-.97-2.64-2.68-5.94-5.11-9.9-2.43-3.96-5.59-7.85-9.48-11.67-3.89-3.82-8.54-7.05-13.96-9.69-5.42-2.64-11.67-3.96-18.75-3.96-8.89,0-16.98,2.4-24.27,7.19-7.29,4.79-13.09,11.63-17.4,20.52-4.31,8.89-6.46,19.52-6.46,31.88,0,10,1.42,19.1,4.27,27.29,2.85,8.2,6.88,15.31,12.08,21.35,5.21,6.04,11.28,10.7,18.23,13.96,6.94,3.27,14.58,4.9,22.92,4.9,5.28,0,9.51-.62,12.71-1.87,3.19-1.25,5.52-3.68,6.98-7.29,1.46-3.61,2.19-8.96,2.19-16.04,0-6.67-.38-11.56-1.15-14.69-.77-3.13-2.6-5.17-5.52-6.15-2.92-.97-7.64-1.46-14.17-1.46-.83,0-1.25-.55-1.25-1.67s.35-1.67,1.04-1.67c9.72.56,18.47.87,26.25.94,7.78.07,15.97-.1,24.58-.52.55,0,.87.49.94,1.46.07.97-.24,1.46-.94,1.46-2.36-.14-4.1.31-5.21,1.35-1.11,1.04-1.81,3.3-2.08,6.77-.28,3.47-.42,8.89-.42,16.25,0,4.58.14,7.99.42,10.21.28,2.22.52,3.85.73,4.9.21,1.04.31,2.12.31,3.23,0,.83-.14,1.39-.42,1.67s-.9.56-1.87.83c-7.64,1.67-15.66,3.06-24.06,4.17-8.41,1.11-16.49,1.67-24.27,1.67Z"/>
      <path class="cls-1" d="M1269.03,392.51h-92.09c-.42,0-.62-.42-.62-1.25s.21-1.25.62-1.25c4.3,0,7.5-.35,9.58-1.04,2.08-.69,3.47-2.08,4.17-4.17.69-2.08,1.04-5.14,1.04-9.17v-96.46c0-4.03-.35-7.05-1.04-9.06-.7-2.01-2.08-3.4-4.17-4.17-2.08-.76-5.28-1.15-9.58-1.15-.42,0-.62-.42-.62-1.25s.21-1.25.62-1.25h88.34c1.39,0,2.08.62,2.08,1.88l.42,27.71c0,.28-.35.49-1.04.62-.7.14-1.18,0-1.46-.42-2.22-8.19-5.97-14.2-11.25-18.02-5.28-3.82-12.22-5.73-20.83-5.73h-6.25c-2.78,0-5.07.38-6.88,1.15-1.81.76-3.12,1.98-3.96,3.65-.83,1.67-1.25,3.75-1.25,6.25v95.42c0,2.64.35,4.86,1.04,6.67.69,1.81,1.74,3.12,3.12,3.96,1.39.83,3.19,1.25,5.42,1.25h6.88c10.83,0,19.51-2.22,26.04-6.67,6.53-4.44,11.32-11.32,14.37-20.63.14-.42.59-.52,1.35-.31.76.21,1.15.45,1.15.73-.56,4.03-1.04,8.79-1.46,14.27-.42,5.49-.62,10.59-.62,15.31,0,2.08-1.04,3.12-3.12,3.12ZM1257.37,346.05c0-5.69-2.16-10.17-6.46-13.44-4.31-3.26-10.63-4.9-18.96-4.9h-28.13v-5.83h28.33c8.19,0,14.41-1.42,18.65-4.27,4.23-2.85,6.35-6.7,6.35-11.56,0-.42.38-.62,1.15-.62s1.15.21,1.15.62c0,4.58-.04,8.16-.1,10.73-.07,2.57-.1,5.24-.1,8.02,0,3.47.1,6.88.31,10.21.21,3.33.31,7.02.31,11.04,0,.28-.42.42-1.25.42s-1.25-.14-1.25-.42Z"/>
    </g>
    <g>
      <path class="cls-1" d="M479.06,508.82l-.06-31.64-15.7,26.37h-2.85l-15.7-26.18v31.45h-5.96v-43.43h5.09l18.11,30.52,17.87-30.52h5.09l.06,43.43h-5.96Z"/>
      <path class="cls-1" d="M498.85,487.1c0-12.72,9.8-22.21,23.14-22.21s23.02,9.43,23.02,22.21-9.8,22.21-23.02,22.21-23.14-9.49-23.14-22.21ZM538.81,487.1c0-9.62-7.2-16.69-16.81-16.69s-16.94,7.07-16.94,16.69,7.2,16.69,16.94,16.69,16.81-7.07,16.81-16.69Z"/>
      <path class="cls-1" d="M596.19,497.09c0,7.45-5.65,11.73-16.63,11.73h-20.72v-43.43h19.48c9.99,0,15.57,4.22,15.57,11.23,0,4.72-2.42,8-5.83,9.68,4.9,1.36,8.13,5.03,8.13,10.79ZM565.05,470.42v13.9h12.72c6.33,0,9.93-2.36,9.93-6.95s-3.6-6.95-9.93-6.95h-12.72ZM589.92,496.6c0-5.03-3.72-7.26-10.61-7.26h-14.27v14.45h14.27c6.89,0,10.61-2.17,10.61-7.2Z"/>
      <path class="cls-1" d="M610.15,465.39h6.2v43.43h-6.2v-43.43Z"/>
      <path class="cls-1" d="M633.72,465.39h6.2v38.03h23.51v5.4h-29.72v-43.43Z"/>
      <path class="cls-1" d="M706.43,503.42v5.4h-31.52v-43.43h30.65v5.4h-24.44v13.34h21.78v5.27h-21.78v14.02h25.31Z"/>
      <path class="cls-1" d="M741.85,465.39h6.2v43.43h-6.2v-43.43Z"/>
      <path class="cls-1" d="M802.71,465.39l-19.05,43.43h-6.14l-19.11-43.43h6.7l15.63,35.67,15.76-35.67h6.2Z"/>
      <path class="cls-1" d="M843.16,470.79h-14.89v-5.4h35.92v5.4h-14.89v38.03h-6.14v-38.03Z"/>
      <path class="cls-1" d="M912.64,465.39v43.43h-6.2v-19.36h-24.94v19.36h-6.2v-43.43h6.2v18.67h24.94v-18.67h6.2Z"/>
      <path class="cls-1" d="M961.53,503.42v5.4h-31.52v-43.43h30.65v5.4h-24.44v13.34h21.78v5.27h-21.78v14.02h25.31Z"/>
      <path class="cls-1" d="M1004.95,508.82l-9.37-13.34c-.87.06-1.8.12-2.73.12h-10.73v13.21h-6.2v-43.43h16.94c11.29,0,18.11,5.71,18.11,15.14,0,6.7-3.47,11.54-9.55,13.71l10.3,14.58h-6.76ZM1004.77,480.53c0-6.2-4.16-9.74-12.1-9.74h-10.55v19.54h10.55c7.94,0,12.1-3.6,12.1-9.8Z"/>
      <path class="cls-1" d="M1053.03,497.96h-23.08l-4.78,10.86h-6.39l19.67-43.43h6.14l19.73,43.43h-6.51l-4.78-10.86ZM1050.86,493l-9.37-21.28-9.37,21.28h18.74Z"/>
      <path class="cls-1" d="M1110.17,480.53c0,9.43-6.82,15.14-18.11,15.14h-10.73v13.15h-6.2v-43.43h16.94c11.29,0,18.11,5.71,18.11,15.14ZM1103.96,480.53c0-6.2-4.16-9.74-12.1-9.74h-10.55v19.48h10.55c7.94,0,12.1-3.54,12.1-9.74Z"/>
      <path class="cls-1" d="M1140.25,493.8v15.01h-6.14v-15.14l-17.25-28.29h6.64l13.9,22.89,13.96-22.89h6.14l-17.25,28.41Z"/>
    </g>
  </g>
</svg>